<svg xmlns="http://www.w3.org/2000/svg" width="200" height="200" viewBox="0 0 200 200">
  <!-- 背景 -->
  <rect width="200" height="200" fill="#E0E0E0" rx="10"/>
  
  <!-- 音符符号 -->
  <path d="M80,150 L80,100 C80,90 88,80 100,80 C112,80 120,90 120,100 L120,150" stroke="#9E9E9E" stroke-width="12" fill="none" stroke-linecap="round" stroke-linejoin="round"/>
  <circle cx="100" cy="100" r="8" fill="#9E9E9E"/>
  <path d="M120,150 L120,120 C120,110 128,100 140,100 C152,100 160,110 160,120 L160,150" stroke="#9E9E9E" stroke-width="12" fill="none" stroke-linecap="round" stroke-linejoin="round"/>
  <circle cx="140" cy="120" r="8" fill="#9E9E9E"/>
  
  <!-- 装饰元素 -->
  <circle cx="50" cy="50" r="15" stroke="#BDBDBD" stroke-width="2" fill="none"/>
  <circle cx="150" cy="150" r="15" stroke="#BDBDBD" stroke-width="2" fill="none"/>
  <path d="M40,160 Q100,180 160,160" stroke="#BDBDBD" stroke-width="2" fill="none"/>
  <path d="M40,40 Q100,20 160,40" stroke="#BDBDBD" stroke-width="2" fill="none"/>
</svg>